/* XPM */
static char * thomson_xpm[] = {
"40 40 23 1",
" 	c None",
".	c #827FAB",
"+	c #4C41E5",
"@	c #584FD8",
"#	c #382AFA",
"$	c #BBB6FD",
"%	c #FFFFFF",
"&	c #FFFFF7",
"*	c #E9E9E9",
"=	c #A8A8A8",
"-	c #9C98DA",
";	c #D5D2FE",
">	c #7C73FC",
",	c #6257FB",
"'	c #BABABA",
")	c #FFFFFA",
"!	c #7671B8",
"~	c #BBB6F8",
"{	c #FFFFFD",
"]	c #FFFFFE",
"^	c #FFFFF9",
"/	c #FFFFFC",
"(	c #DBDBD9",
"                                        ",
"                                        ",
"                                        ",
"                  .+@                   ",
"                .+##$%@                 ",
"             .+#####%%&*=#              ",
"          .+########%%&%%%%#@           ",
"       .+###########%%%%%%%&%%-         ",
"    .+##############%%&%%%%%%%%*=#      ",
"   +################;%%%%%%%%%%%%%%>+   ",
"  +#################,%&%%%%%%%%%%&%%$+  ",
"  ###############+.   #'%&%%%%%%%%%%%#  ",
"  ############+.        @#%)&&%&%%&%%#  ",
"  ###########!             #$%%&%%&%%#  ",
"  ###########              ####~%%%%%#  ",
"  ###########              #####,;&%%#  ",
"  ###########              #########&#  ",
"  #.!########              ########! #  ",
"     ########              ########     ",
"     ########              ########     ",
"     ########              ########     ",
"  # !########              ########!.#  ",
"  #%>########              ###########  ",
"  #%%%$######              ###########  ",
"  #%&%{&$####              ###########  ",
"  #%%%&]%&{;,             !###########  ",
"  #^]%%%%{&]%%>@       .+#############  ",
"  #&&%%%%%)&%%%% #   .+###############  ",
"  +$%%%%%%%%%&]%&{%,#################+  ",
"   #'%)&{%%%%&&%]&%;################+   ",
"     @#/))%%%&]%%%%&#############+.     ",
"        @#%%%%%&%%%%##########+.        ",
"           # (%%%&&%########+.          ",
"              #=*%%%#####+.             ",
"                 -%$##+.                ",
"                   @+.                  ",
"                                        ",
"                                        ",
"                                        ",
"                                        "};
