/* XPM */
static char * thomson_xpm[] = {
"40 40 194 2",
"  	c None",
". 	c #040312",
"+ 	c #000004",
"@ 	c #151060",
"# 	c #281EB5",
"$ 	c #3125DE",
"% 	c #060419",
"& 	c #0E0A3F",
"* 	c #1F178B",
"= 	c #3528ED",
"- 	c #382AFA",
"; 	c #AFA9FD",
"> 	c #6C62FB",
", 	c #493DFA",
"' 	c #000000",
") 	c #050316",
"! 	c #211997",
"~ 	c #3326E6",
"{ 	c #3629F5",
"] 	c #FFFFFF",
"^ 	c #FBFBFE",
"/ 	c #F0EFFE",
"( 	c #B9B4FD",
"_ 	c #5447FA",
": 	c #000002",
"< 	c #0C0939",
"[ 	c #1A1376",
"} 	c #2A20BF",
"| 	c #3729F7",
"1 	c #FCFCFF",
"2 	c #D4D1FD",
"3 	c #9D96FC",
"4 	c #6358FA",
"5 	c #110D4E",
"6 	c #2D21C9",
"7 	c #E4E2FE",
"8 	c #837AFB",
"9 	c #4639FA",
"0 	c #3B2DFA",
"a 	c #02010A",
"b 	c #150F5F",
"c 	c #271DAF",
"d 	c #3225E0",
"e 	c #3729F9",
"f 	c #EFEEFE",
"g 	c #EDECFE",
"h 	c #CCC9FD",
"i 	c #8880FC",
"j 	c #4033F9",
"k 	c #020109",
"l 	c #1C157D",
"m 	c #3F32FA",
"n 	c #8077FB",
"o 	c #C5C0FD",
"p 	c #EBE9FE",
"q 	c #FEFEFF",
"r 	c #F7F7FE",
"s 	c #B0ABFD",
"t 	c #6B61FB",
"u 	c #1B147C",
"v 	c #2E23D0",
"w 	c #100D4B",
"x 	c #0E0B41",
"y 	c #2B20C4",
"z 	c #3A2DFA",
"A 	c #7C73FB",
"B 	c #DCDAFE",
"C 	c #F5F5FE",
"D 	c #493CFA",
"E 	c #3629F6",
"F 	c #291FBA",
"G 	c #0C0937",
"H 	c #0B0833",
"I 	c #191374",
"J 	c #3A2CF7",
"K 	c #6055FA",
"L 	c #9891FC",
"M 	c #D1CEFD",
"N 	c #FAFAFE",
"O 	c #F8F7FE",
"P 	c #3427EC",
"Q 	c #05041A",
"R 	c #070520",
"S 	c #221999",
"T 	c #3528EE",
"U 	c #5145FA",
"V 	c #B6B1FD",
"W 	c #1C157E",
"X 	c #1C157F",
"Y 	c #4A3DFA",
"Z 	c #6E63FB",
"` 	c #F5F4FE",
" .	c #F8F8FE",
"..	c #3729F6",
"+.	c #4538F8",
"@.	c #887FFB",
"#.	c #4235FA",
"$.	c #2D22CB",
"%.	c #120D53",
"&.	c #251BA6",
"*.	c #3226E3",
"=.	c #281EB7",
"-.	c #0C0938",
";.	c #0E0A3E",
">.	c #010005",
",.	c #241BA1",
"'.	c #0A072D",
").	c #0A072E",
"!.	c #241BA2",
"~.	c #241BA3",
"{.	c #0B0831",
"].	c #000003",
"^.	c #241BA4",
"/.	c #0D093B",
"(.	c #0C0935",
"_.	c #382AF9",
":.	c #2C21C4",
"<.	c #120D52",
"[.	c #251CAA",
"}.	c #3326E3",
"|.	c #110D51",
"1.	c #2C21C7",
"2.	c #5347FA",
"3.	c #8981FB",
"4.	c #4538F9",
"5.	c #6257FB",
"6.	c #B8B4FD",
"7.	c #736AFB",
"8.	c #4F43FA",
"9.	c #392BFA",
"0.	c #FCFCFE",
"a.	c #F2F1FE",
"b.	c #C6C2FD",
"c.	c #6B60FB",
"d.	c #201891",
"e.	c #E2E1FE",
"f.	c #AAA4FC",
"g.	c #7168FB",
"h.	c #3F31F5",
"i.	c #281EB6",
"j.	c #18126F",
"k.	c #5F54FB",
"l.	c #F1F0FE",
"m.	c #9B94FC",
"n.	c #4C40FA",
"o.	c #3E30FA",
"p.	c #281DB4",
"q.	c #3D2FFA",
"r.	c #675DFB",
"s.	c #A7A2FC",
"t.	c #F4F3FE",
"u.	c #F6F6FE",
"v.	c #D6D3FD",
"w.	c #A29BFC",
"x.	c #5649F9",
"y.	c #3729F8",
"z.	c #15105F",
"A.	c #261CAC",
"B.	c #3125DC",
"C.	c #3D30F8",
"D.	c #857CFC",
"E.	c #C9C5FD",
"F.	c #2B20C6",
"G.	c #3A2CFA",
"H.	c #7B72FB",
"I.	c #E2DFFE",
"J.	c #191372",
"K.	c #291EB9",
"L.	c #6156FA",
"M.	c #9C96FC",
"N.	c #FDFDFF",
"O.	c #040212",
"P.	c #201890",
"Q.	c #3326E5",
"R.	c #3628F3",
"S.	c #5E53FA",
"T.	c #C3BFFD",
"U.	c #FDFDFE",
"V.	c #040213",
"W.	c #040315",
"X.	c #0D0A3B",
"Y.	c #1D1683",
"Z.	c #3427EB",
"`.	c #4C3FFA",
" +	c #7369FB",
".+	c #BDB9FD",
"++	c #3527EB",
"@+	c #1D1684",
"#+	c #0D093C",
"$+	c #000001",
"%+	c #130E56",
"&+	c #271DB1",
"*+	c #3125DD",
"=+	c #130E57",
"                                                                                ",
"                                                                                ",
"                                                                                ",
"                                      . .                                       ",
"                                + @ # $ $ # @ +                                 ",
"                          % & * = - - - ; > , = * & %                           ",
"                    ' ) ! ~ { - - - - - ] ^ / ( _ { ~ ! ) '                     ",
"              : < [ } | - - - - - - - - ] ] ] ] 1 2 3 4 | } [ < :               ",
"          . 5 6 - - - - - - - - - - - - ] ] ] ] ] ] ] ] 7 8 9 0 6 5 .           ",
"    a b c d e - - - - - - - - - - - - - f ] ] ] ] ] ] ] ] ] g h i j d c b k     ",
"    l - - - - - - - - - - - - - - - - - m n o p q ] ] ] ] ] ] ] ] r s t 0 u     ",
"    l - - - - - - - - - - - - - - - v w x y z 9 A B q ] ] ] ] ] ] ] ] C D u     ",
"    l - - - - - - - - - - - E F [ G '     ' H I F J K L M N ] ] ] ] ] O D u     ",
"    l - - - - - - - - - P * Q '                 ' R S T - U V / ^ ] ] O D u     ",
"    l - - - - - - - - - W                             X - - - Y Z s `  ., u     ",
"    l - - e ..- - - - - u                             l - - - - - e +.@.#.u     ",
"    l - $.%.&.- - - - - u                             l - - - - - *.x =.e u     ",
"    -.;.>.  ,.- - - - - u                             l - - - - - d     '.).    ",
"            !.- - - - - u                             l - - - - - d             ",
"            !.- - - - - u                             l - - - - - d             ",
"            ~.- - - - - u                             l - - - - - d             ",
"            ~.- - - - - u                             l - - - - - d             ",
"    {.G ].  ^.- - - - - u                             l - - - - - d ' + /.(.    ",
"    l _.:.<.[.- - - - - u                             l - - - - - }.|.1._.u     ",
"    l 2.3.4.| - - - - - u                             l - - - - - e e - - u     ",
"    l 5.] O 6.7.8.9.- - X                             X - - - - - - - - - u     ",
"    l 5.] ] ] 0.a.b.c.9.= d.Q '                 ' Q d.= - - - - - - - - - u     ",
"    l 5.] ] ] ] ] ] q e.f.g.h.i.j.).        ).j.i.{ - - - - - - - - - - - u     ",
"    l k.N ] ] ] ] ] ] ] ] ] l.m.n.o.p.G G p.- - - - - - - - - - - - - - - u     ",
"    l q.r.s.t.] ] ] ] ] ] ] ] ] u.v.w.x.y.- - - - - - - - - - - - - - - - u     ",
"    a z.A.B.C.D.E.g ] ] ] ] ] ] ] ] ] q - - - - - - - - - - - - - y.B.A.z.a     ",
"          . ;.F.G.9 H.I.] ] ] ] ] ] ] ] - - - - - - - - - - - - F.;..           ",
"              : G J.K...L.M.v.N.] ] ] ] - - - - - - - - ..F J.-.:               ",
"                    ' O.P.Q.R.S.T.l.U.] - - - - - R.Q.P.V.'                     ",
"                          W.X.Y.Z.`. +.+- - - ++@+#+W.                          ",
"                                $+%+&+*+$ &+=+:                                 ",
"                                      O..                                       ",
"                                                                                ",
"                                                                                ",
"                                                                                "};
